<?xml version="1.0" encoding="UTF-8" standalone="no"?>
<!-- Created with Inkscape (http://www.inkscape.org/) -->

<svg
   xmlns:dc="http://purl.org/dc/elements/1.1/"
   xmlns:cc="http://creativecommons.org/ns#"
   xmlns:rdf="http://www.w3.org/1999/02/22-rdf-syntax-ns#"
   xmlns:svg="http://www.w3.org/2000/svg"
   xmlns="http://www.w3.org/2000/svg"
   xmlns:sodipodi="http://sodipodi.sourceforge.net/DTD/sodipodi-0.dtd"
   xmlns:inkscape="http://www.inkscape.org/namespaces/inkscape"
   width="533.33331"
   height="533.33331"
   viewBox="0 0 500.00001 500.00001"
   id="svg3349"
   version="1.1"
   inkscape:version="0.92.2 (5c3e80d, 2017-08-06)"
   sodipodi:docname="icon_small.svg"
   inkscape:export-xdpi="2.8800001"
   inkscape:export-ydpi="2.8800001">
  <defs
     id="defs3351" />
  <sodipodi:namedview
     id="base"
     pagecolor="#8c8c8c"
     bordercolor="#666666"
     borderopacity="1.0"
     inkscape:pageopacity="0"
     inkscape:pageshadow="2"
     inkscape:zoom="0.880348"
     inkscape:cx="164.58084"
     inkscape:cy="250.35622"
     inkscape:document-units="px"
     inkscape:current-layer="layer4"
     showgrid="false"
     inkscape:window-width="1676"
     inkscape:window-height="1011"
     inkscape:window-x="2520"
     inkscape:window-y="798"
     inkscape:window-maximized="0"
     units="px"
     fit-margin-top="0"
     fit-margin-left="0"
     fit-margin-right="0"
     fit-margin-bottom="0"
     inkscape:pagecheckerboard="false"
     showguides="true"
     inkscape:guide-bbox="true" />
  <metadata
     id="metadata3354">
    <rdf:RDF>
      <cc:Work
         rdf:about="">
        <dc:format>image/svg+xml</dc:format>
        <dc:type
           rdf:resource="http://purl.org/dc/dcmitype/StillImage" />
        <dc:title></dc:title>
      </cc:Work>
    </rdf:RDF>
  </metadata>
  <style>
    :root { color-scheme: light dark; }
  </style>
  <g
     inkscape:groupmode="layer"
     id="layer4"
     inkscape:label="icon">
    <path
       fill="context-fill light-dark(black, white)" fill-opacity="context-fill-opacity"
       d="m 31.735841,31.034545 c -17.521082,0 -31.62780876,14.106724 -31.62780876,31.627809 V 438.15493 c 0,17.52108 14.10672676,31.62781 31.62780876,31.62781 H 468.16958 c 17.52109,0 31.62597,-14.10673 31.62597,-31.62781 V 62.662354 c 0,-17.521085 -14.10488,-31.627809 -31.62597,-31.627809 z M 284.06801,55.316162 a 20.499706,20.499706 0 0 1 20.49865,20.498659 20.499706,20.499706 0 0 1 -20.49865,20.500491 20.499706,20.499706 0 0 1 -20.50049,-20.500491 20.499706,20.499706 0 0 1 20.50049,-20.498659 z m 63.90015,0 a 20.499706,20.499706 0 0 1 20.50048,20.498659 20.499706,20.499706 0 0 1 -20.50048,20.500491 20.499706,20.499706 0 0 1 -20.50049,-20.500491 20.499706,20.499706 0 0 1 20.50049,-20.498659 z m 63.90015,0 a 20.499706,20.499706 0 0 1 20.49866,20.498659 20.499706,20.499706 0 0 1 -20.49866,20.500491 20.499706,20.499706 0 0 1 -20.5005,-20.500491 20.499706,20.499706 0 0 1 20.5005,-20.498659 z M 40.400393,125.34852 H 459.49221 v 304.0796 H 40.400393 Z"
       id="rect187" />
    <path
       d="M 102.92273,411.75329 44.908603,146.34567 h 21.475406 l 48.141541,223.45438 48.24333,-223.45438 h 21.37363 l -57.91235,265.40762 z"
       fill="context-fill light-dark(black, white)" fill-opacity="context-fill-opacity"
       style="font-style:normal;font-weight:normal;font-size:275.47753906px;line-height:166.4380188px;font-family:sans-serif;letter-spacing:0px;word-spacing:0px;fill-opacity:1;fill-rule:evenodd;stroke:none;stroke-width:1.47944903px;stroke-linecap:butt;stroke-linejoin:miter;stroke-opacity:1"
       id="path839-1" />
    <path
       d="m 185.1603,146.34567 h 128.5471 v 30.22057 H 259.76443 V 411.75329 H 239.10327 V 176.56624 H 185.1603 Z"
       fill="context-fill light-dark(black, white)" fill-opacity="context-fill-opacity"
       style="font-style:normal;font-weight:normal;font-size:275.47753906px;line-height:166.4380188px;font-family:sans-serif;letter-spacing:0px;word-spacing:0px;fill-opacity:1;fill-rule:evenodd;stroke:none;stroke-width:1.47944903px;stroke-linecap:butt;stroke-linejoin:miter;stroke-opacity:1"
       id="path841-1" />
    <path
       d="m 405.71576,287.3157 q 6.61566,3.91089 12.82418,16.71019 6.31031,12.7993 12.62062,35.19806 l 20.86473,72.52934 h -22.08608 l -19.43982,-68.08515 q -7.53166,-26.66518 -14.6562,-35.37582 -7.02276,-8.71063 -19.23627,-8.71063 H 354.2155 v 112.1716 H 333.65612 V 146.34567 h 46.41129 q 26.05547,0 38.87965,19.02117 12.82418,19.02118 12.82418,57.41907 0,25.06528 -6.71743,41.59771 -6.61564,16.53243 -19.33805,22.93208 z M 354.2155,175.85517 v 94.21703 h 25.85191 q 14.85977,0 22.39143,-11.91046 7.63343,-12.08822 7.63343,-35.37583 0,-23.28761 -7.63343,-35.02029 -7.53166,-11.91045 -22.39143,-11.91045 z"
       fill="context-fill light-dark(black, white)" fill-opacity="context-fill-opacity"
       style="font-style:normal;font-weight:normal;font-size:275.47753906px;line-height:166.4380188px;font-family:sans-serif;letter-spacing:0px;word-spacing:0px;fill-opacity:1;fill-rule:evenodd;stroke:none;stroke-width:1.47944903px;stroke-linecap:butt;stroke-linejoin:miter;stroke-opacity:1"
       id="path843-0" />
  </g>
</svg>
